<?xml version="1.0" standalone="no"?>
<!DOCTYPE svg PUBLIC "-//W3C//DTD SVG 20010904//EN"
 "http://www.w3.org/TR/2001/REC-SVG-20010904/DTD/svg10.dtd">
<svg version="1.0" xmlns="http://www.w3.org/2000/svg"
 width="400.000000pt" height="400.000000pt" viewBox="0 0 400.000000 400.000000"
 preserveAspectRatio="xMidYMid meet">

<g transform="translate(0.000000,400.000000) scale(0.100000,-0.100000)"
fill="#000000" stroke="none">
<path d="M1903 3040 c-203 -37 -386 -191 -453 -382 -31 -88 -39 -258 -15 -348
27 -104 71 -177 160 -265 185 -185 429 -226 665 -113 155 74 273 217 315 383
19 76 19 214 0 290 -37 141 -148 290 -268 359 -114 67 -280 98 -404 76z"/>
<path d="M1510 2013 c-36 -13 -159 -78 -200 -106 -127 -87 -232 -219 -283
-357 -25 -69 -47 -170 -47 -222 l0 -47 73 -47 c197 -129 456 -227 693 -263
411 -62 864 36 1208 261 l66 43 0 48 c0 139 -85 345 -190 460 -34 37 -90 87
-124 111 -60 43 -186 111 -217 118 -8 2 -37 -16 -65 -38 -61 -52 -142 -97
-220 -125 -84 -30 -256 -37 -344 -15 -94 24 -196 75 -267 134 -34 29 -63 52
-65 51 -2 0 -10 -3 -18 -6z"/>
</g>
</svg>
